<?xml version="1.0" encoding="utf-8"?>
<svg width="66.98694px" height="130.58548px" viewBox="0 0 66.98694 130.58548" version="1.1" xmlns:xlink="http://www.w3.org/1999/xlink" xmlns="http://www.w3.org/2000/svg">
  <g id="Group-53" transform="translate(1.0314941 1.0314941)">
    <path d="M44.8451 87.7331C44.8451 87.7331 31.5721 95.2011 14.8181 87.1021C14.8181 87.1021 11.2881 86.3591 11.5671 94.4881C11.5671 94.4881 10.8371 102.227 12.0091 112.343C12.8891 119.934 14.7521 126.153 16.2451 127.097C18.2631 128.361 23.6131 127.743 25.0521 126.631C25.0521 126.631 26.0341 125.189 26.8481 121.705L27.6601 118.511C27.6601 118.511 27.9391 117.218 29.6001 116.884L29.2291 117.436L29.6281 123.082C29.6281 123.082 30.0431 124.738 32.8841 126.951C36.4891 129.758 40.4951 127.359 42.3311 122.631C42.3311 122.631 43.1691 117.723 44.3231 110.84L44.2691 113.226C48.0441 112.355 48.7411 107.012 48.7411 107.012C50.2501 97.4891 44.8451 87.7331 44.8451 87.7331" id="Fill-1" fill="#99C93C" fill-rule="evenodd" stroke="none" />
    <path d="M45.6701 88.0714C45.6701 88.0714 51.0751 97.8274 49.5661 107.35C49.5661 107.35 48.8681 112.693 45.0941 113.564" id="Stroke-3" fill="none" fill-rule="evenodd" stroke="#231F20" stroke-width="2.063" stroke-linecap="round" />
    <path d="M58.7392 45.9947C58.1552 45.6697 57.7652 45.0817 57.7202 44.4217C55.7182 14.4127 52.0652 0.720695 43.6322 0.0176955C39.6342 -0.173305 36.9702 1.1527 34.7962 5.4207C31.2612 3.3617 28.2082 3.8267 24.5412 6.0197C14.3792 12.0967 6.92525 36.7007 3.86225 49.1447C1.87125 57.2337 -4.48775 86.9127 26.9382 90.5177C40.3022 92.0497 53.5592 86.3377 56.4552 69.7687C56.5592 69.1707 56.9292 68.6657 57.4732 68.4287C66.9512 64.3027 67.4012 50.8167 58.7392 45.9947" id="Fill-5" fill="#99C93C" fill-rule="evenodd" stroke="none" />
    <path d="M58.7392 45.9947C58.1552 45.6697 57.7652 45.0817 57.7202 44.4217C55.7182 14.4127 52.0652 0.720695 43.6322 0.0176955C39.6342 -0.173305 36.9702 1.1527 34.7962 5.4207C31.2612 3.3617 28.2082 3.8267 24.5412 6.0197C14.3792 12.0967 6.92525 36.7007 3.86225 49.1447C1.87125 57.2337 -4.48775 86.9127 26.9382 90.5177C40.3022 92.0497 53.5592 86.3377 56.4552 69.7687C56.5592 69.1707 56.9292 68.6657 57.4732 68.4287C66.9512 64.3027 67.4012 50.8167 58.7392 45.9947Z" id="Stroke-7" fill="none" fill-rule="evenodd" stroke="#231F20" stroke-width="2.063" stroke-linecap="round" stroke-linejoin="round" />
    <path d="M30.5288 49.6629C41.9508 50.6259 50.1808 57.8489 49.2398 70.2069C48.3258 82.2169 38.3708 87.3139 27.4328 86.3919C16.4928 85.4689 7.53284 78.7769 8.64184 66.7849C9.78384 54.4429 19.1068 48.6999 30.5288 49.6629" id="Fill-9" fill="#FEFEFE" fill-rule="evenodd" stroke="none" />
    <path d="M30.5288 49.6629C41.9508 50.6259 50.1808 57.8489 49.2398 70.2069C48.3258 82.2169 38.3708 87.3139 27.4328 86.3919C16.4928 85.4689 7.53284 78.7769 8.64184 66.7849C9.78384 54.4429 19.1068 48.6999 30.5288 49.6629Z" id="Stroke-11" fill="none" fill-rule="evenodd" stroke="#231F20" stroke-width="2.063" stroke-linecap="round" />
    <path d="M20.2642 74.3558C20.7672 71.6758 24.2742 71.1068 28.6932 71.4778C33.1102 71.8528 36.4662 72.9998 36.5142 75.7258C36.6002 81.8218 19.1582 80.3518 20.2642 74.3558" id="Fill-13" fill="#FFCA05" fill-rule="evenodd" stroke="none" />
    <path d="M20.2642 74.3558C20.7672 71.6758 24.2742 71.1068 28.6932 71.4778C33.1102 71.8528 36.4662 72.9998 36.5142 75.7258C36.6002 81.8218 19.1582 80.3518 20.2642 74.3558Z" id="Stroke-15" fill="none" fill-rule="evenodd" stroke="#231F20" stroke-width="1.65" stroke-linecap="round" />
    <path d="M32.8092 75.5804C29.9382 76.2804 26.6332 76.0024 23.9202 74.8314" id="Stroke-17" fill="none" fill-rule="evenodd" stroke="#231F20" stroke-width="1.65" stroke-linecap="round" />
    <path d="M21.1714 67.1217C21.2624 66.0467 22.2054 65.2517 23.2774 65.3417C24.3514 65.4317 25.1484 66.3747 25.0584 67.4497C24.9684 68.5227 24.0244 69.3187 22.9504 69.2277C21.8774 69.1377 21.0804 68.1947 21.1714 67.1217" id="Fill-19" fill="#231F20" fill-rule="evenodd" stroke="none" />
    <path d="M32.6731 68.0909C32.7641 67.0169 33.7071 66.2209 34.7801 66.3109C35.8531 66.4019 36.6501 67.3439 36.5601 68.4189C36.4701 69.4929 35.5261 70.2879 34.4521 70.1979C33.3791 70.1069 32.5831 69.1649 32.6731 68.0909" id="Fill-21" fill="#231F20" fill-rule="evenodd" stroke="none" />
    <path d="M60.1559 58.6082C59.5739 60.7442 57.3669 61.9382 55.2279 61.2742C53.0889 60.6112 51.8269 58.3432 52.4089 56.2072C52.9909 54.0712 55.1959 52.8782 57.3369 53.5412C59.4749 54.2032 60.7379 56.4732 60.1559 58.6082" id="Fill-23" fill="#FFCA05" fill-rule="evenodd" stroke="none" />
    <path d="M60.1559 58.6082C59.5739 60.7442 57.3669 61.9382 55.2279 61.2742C53.0889 60.6112 51.8269 58.3432 52.4089 56.2072C52.9909 54.0712 55.1959 52.8782 57.3369 53.5412C59.4749 54.2032 60.7379 56.4732 60.1559 58.6082Z" id="Stroke-25" fill="none" fill-rule="evenodd" stroke="#231F20" stroke-width="1.65" stroke-linecap="round" />
    <g id="Group-30" transform="translate(21.03696 22.084196)">
      <path d="M9.31709 0L1.92709 0.875C0.0130852 1.101 -0.683915 3.505 0.801085 4.755L6.93109 9.912" id="Fill-27" fill="#FEFEFE" fill-rule="evenodd" stroke="none" />
      <path d="M9.31709 0L1.92709 0.875C0.0130852 1.101 -0.683915 3.505 0.801085 4.755L6.93109 9.912" id="Stroke-29" fill="none" fill-rule="evenodd" stroke="#231F20" stroke-width="2.063" stroke-linecap="round" stroke-linejoin="round" />
    </g>
    <g id="Group-34" transform="translate(18.150938 31.996195)">
      <path d="M9.81711 0L1.86611 1.16C-0.0388929 1.438 -0.669893 3.862 0.846107 5.07L7.60011 10.449" id="Fill-31" fill="#FEFEFE" fill-rule="evenodd" stroke="none" />
      <path d="M9.81711 0L1.86611 1.16C-0.0388929 1.438 -0.669893 3.862 0.846107 5.07L7.60011 10.449" id="Stroke-33" fill="none" fill-rule="evenodd" stroke="#231F20" stroke-width="2.063" stroke-linecap="round" stroke-linejoin="round" />
    </g>
    <g id="Group-38" transform="translate(24.032133 12.670695)">
      <path d="M8.49511 1.42109e-14L1.97111 0.689C0.0541124 0.876 -0.692888 3.265 0.767112 4.545L6.32211 9.413" id="Fill-35" fill="#FEFEFE" fill-rule="evenodd" stroke="none" />
      <path d="M8.49511 1.42109e-14L1.97111 0.689C0.0541124 0.876 -0.692888 3.265 0.767112 4.545L6.32211 9.413" id="Stroke-37" fill="none" fill-rule="evenodd" stroke="#231F20" stroke-width="2.063" stroke-linecap="round" stroke-linejoin="round" />
    </g>
    <path d="M34.7955 5.4205C34.7955 5.4205 32.0115 13.3925 26.1025 42.6155" id="Stroke-39" fill="none" fill-rule="evenodd" stroke="#231F20" stroke-width="2.063" stroke-linecap="round" stroke-linejoin="round" />
    <g id="Group-44" transform="translate(1.7763568E-15 71.53769)">
      <path d="M11.3878 26.2629C11.3878 26.2629 4.40184 25.0669 0.883845 16.1459C-0.246155 13.2819 -0.537155 7.69991 1.48984 3.65491C2.14584 2.34591 3.50784 -0.316094 7.13284 0.0309057C10.4668 0.350906 12.5608 3.05991 12.0838 7.41291C11.8218 9.80891 10.5928 14.3629 16.2178 16.2309" id="Fill-41" fill="#99C93C" fill-rule="evenodd" stroke="none" />
      <path d="M11.3878 26.2629C11.3878 26.2629 4.40184 25.0669 0.883845 16.1459C-0.246155 13.2819 -0.537155 7.69991 1.48984 3.65491C2.14584 2.34591 3.50784 -0.316094 7.13284 0.0309057C10.4668 0.350906 12.5608 3.05991 12.0838 7.41291C11.8218 9.80891 10.5928 14.3629 16.2178 16.2309" id="Stroke-43" fill="none" fill-rule="evenodd" stroke="#231F20" stroke-width="2.063" stroke-linecap="round" stroke-linejoin="round" />
    </g>
    <path d="M36.7683 100.379C36.6343 100.386 36.4983 100.379 36.3603 100.358C33.5983 99.9458 27.0923 100.162 24.8173 100.291C24.8143 100.292 24.8103 100.292 24.8083 100.292C23.6743 100.347 22.7083 99.4748 22.6473 98.3398C22.5873 97.2028 23.4603 96.2328 24.5983 96.1708C24.9493 96.1568 33.2343 95.7198 36.9703 96.2788C38.0963 96.4468 38.8733 97.4958 38.7053 98.6228C38.5573 99.6128 37.7303 100.331 36.7683 100.379" id="Fill-45" fill="#FEFEFE" fill-rule="evenodd" stroke="none" />
    <path d="M36.6398 107.618C36.5058 107.625 36.3688 107.618 36.2318 107.597C33.4698 107.186 26.9638 107.401 24.6888 107.531L24.6798 107.531C23.5458 107.586 22.5788 106.715 22.5188 105.58C22.4588 104.443 23.3318 103.472 24.4698 103.41C24.8208 103.396 33.1048 102.96 36.8418 103.518C37.9678 103.686 38.7448 104.736 38.5768 105.862C38.4288 106.852 37.6018 107.57 36.6398 107.618" id="Fill-47" fill="#FEFEFE" fill-rule="evenodd" stroke="none" />
    <path d="M30.1747 117.095C29.7267 119.388 29.8337 121.223 30.1227 122.599C30.1227 122.599 30.8467 128.522 35.7117 128.522C40.9947 128.522 43.2307 124.89 44.7587 112.68C44.7587 112.68 45.4687 102.703 44.7587 97.0995" id="Stroke-49" fill="none" fill-rule="evenodd" stroke="#231F20" stroke-width="2.063" stroke-linecap="round" />
    <path d="M31.6675 116.759L29.8675 117.166C27.9505 117.398 27.6605 118.85 27.6605 118.85L26.5835 123.282C26.0885 125.042 24.7345 128.067 21.2705 128.191C16.3765 128.366 13.5375 124.89 12.0095 112.682C10.8895 103.74 11.4235 96.6388 11.5415 95.1258" id="Stroke-51" fill="none" fill-rule="evenodd" stroke="#231F20" stroke-width="2.063" stroke-linecap="round" />
  </g>
</svg>